<svg width="135" height="118" viewBox="0 0 135 118" fill="none" xmlns="http://www.w3.org/2000/svg">
<path d="M42.0599 22.0704C63.3723 26.1924 93.4361 27.4008 100.194 51.2602C103.844 64.1475 100.13 77.3868 95.1651 88.4659C90.7227 98.3781 85.0958 103.331 71.9793 101.533C50.5617 98.5982 15.0365 83.3562 20.0294 59.4165C26.1449 30.0939 63.5426 23.8905 91.1928 18.7267" stroke="#E3371D" stroke-width="4" stroke-linecap="round"/>
<path d="M53.1394 81.1538C49.3954 81.1538 46.3554 79.6018 44.0194 76.4978C41.7154 73.3618 40.5634 69.2818 40.5634 64.2578C40.5634 59.2018 41.7154 55.1218 44.0194 52.0178C46.3554 48.8818 49.3954 47.3138 53.1394 47.3138C56.9154 47.3138 59.9554 48.8818 62.2594 52.0178C64.5634 55.1218 65.7154 59.2018 65.7154 64.2578C65.7154 69.3138 64.5634 73.3938 62.2594 76.4978C59.9554 79.6018 56.9154 81.1538 53.1394 81.1538ZM53.1394 75.1538C54.9314 75.1538 56.3394 74.1778 57.3634 72.2258C58.4194 70.2738 58.9474 67.6178 58.9474 64.2578C58.9474 60.8978 58.4194 58.2418 57.3634 56.2898C56.3394 54.3378 54.9314 53.3618 53.1394 53.3618C51.3474 53.3618 49.9234 54.3378 48.8674 56.2898C47.8434 58.2418 47.3314 60.8978 47.3314 64.2578C47.3314 67.5858 47.8434 70.2418 48.8674 72.2258C49.9234 74.1778 51.3474 75.1538 53.1394 75.1538ZM75.1358 53.6498H69.0398V47.7938H81.7118V80.6738H75.1358V53.6498Z" fill="#313646"/>
</svg>
