<svg width="135" height="118" viewBox="0 0 135 118" fill="none" xmlns="http://www.w3.org/2000/svg">
<path d="M42.0599 21.7716C63.3723 25.8936 93.4361 27.102 100.194 50.9614C103.844 63.8487 100.13 77.088 95.1651 88.1671C90.7227 98.0793 85.0958 103.032 71.9793 101.234C50.5617 98.2994 15.0365 83.0574 20.0294 59.1176C26.1449 29.7951 63.5426 23.5916 91.1928 18.4278" stroke="#E3371D" stroke-width="4" stroke-linecap="round"/>
<path d="M47.1394 79.855C43.3954 79.855 40.3554 78.303 38.0194 75.199C35.7154 72.063 34.5634 67.983 34.5634 62.959C34.5634 57.903 35.7154 53.823 38.0194 50.719C40.3554 47.583 43.3954 46.015 47.1394 46.015C50.9154 46.015 53.9554 47.583 56.2594 50.719C58.5634 53.823 59.7154 57.903 59.7154 62.959C59.7154 68.015 58.5634 72.095 56.2594 75.199C53.9554 78.303 50.9154 79.855 47.1394 79.855ZM47.1394 73.855C48.9314 73.855 50.3394 72.879 51.3634 70.927C52.4194 68.975 52.9474 66.319 52.9474 62.959C52.9474 59.599 52.4194 56.943 51.3634 54.991C50.3394 53.039 48.9314 52.063 47.1394 52.063C45.3474 52.063 43.9234 53.039 42.8674 54.991C41.8434 56.943 41.3314 59.599 41.3314 62.959C41.3314 66.287 41.8434 68.943 42.8674 70.927C43.9234 72.879 45.3474 73.855 47.1394 73.855ZM72.3405 73.903H85.6365V79.375H63.9885V74.671L75.2685 61.759C76.3245 60.575 77.0925 59.503 77.5725 58.543C78.0525 57.583 78.2925 56.655 78.2925 55.759C78.2925 54.575 77.9085 53.615 77.1405 52.879C76.3725 52.111 75.3805 51.727 74.1645 51.727C73.1085 51.727 72.0205 52.047 70.9005 52.687C69.7805 53.327 68.6765 54.271 67.5885 55.519L63.6045 51.583C65.0765 49.759 66.7405 48.383 68.5965 47.455C70.4525 46.495 72.4205 46.015 74.5005 46.015C77.4445 46.015 79.8765 46.911 81.7965 48.703C83.7485 50.495 84.7245 52.735 84.7245 55.423C84.7245 57.023 84.3885 58.543 83.7165 59.983C83.0765 61.423 82.0365 62.959 80.5965 64.591L72.3405 73.903Z" fill="#313646"/>
</svg>
