<svg width="135" height="119" viewBox="0 0 135 119" fill="none" xmlns="http://www.w3.org/2000/svg">
<path d="M42.0599 22.4747C63.3723 26.5967 93.4361 27.8051 100.194 51.6645C103.844 64.5518 100.13 77.7911 95.1651 88.8702C90.7227 98.7824 85.0958 103.735 71.9793 101.938C50.5617 99.0025 15.0365 83.7605 20.0294 59.8208C26.1449 30.4982 63.5426 24.2948 91.1928 19.131" stroke="#E3371D" stroke-width="4" stroke-linecap="round"/>
<path d="M46.1394 82.5581C42.3954 82.5581 39.3554 81.0061 37.0194 77.9021C34.7154 74.7661 33.5634 70.6861 33.5634 65.6621C33.5634 60.6061 34.7154 56.5261 37.0194 53.4221C39.3554 50.2861 42.3954 48.7181 46.1394 48.7181C49.9154 48.7181 52.9554 50.2861 55.2594 53.4221C57.5634 56.5261 58.7154 60.6061 58.7154 65.6621C58.7154 70.7181 57.5634 74.7981 55.2594 77.9021C52.9554 81.0061 49.9154 82.5581 46.1394 82.5581ZM46.1394 76.5581C47.9314 76.5581 49.3394 75.5821 50.3634 73.6301C51.4194 71.6781 51.9474 69.0221 51.9474 65.6621C51.9474 62.3021 51.4194 59.6461 50.3634 57.6941C49.3394 55.7421 47.9314 54.7661 46.1394 54.7661C44.3474 54.7661 42.9234 55.7421 41.8674 57.6941C40.8434 59.6461 40.3314 62.3021 40.3314 65.6621C40.3314 68.9901 40.8434 71.6461 41.8674 73.6301C42.9234 75.5821 44.3474 76.5581 46.1394 76.5581ZM78.9669 72.4301C78.9669 71.1181 78.4229 70.0621 77.3349 69.2621C76.2789 68.4621 74.8709 68.0621 73.1109 68.0621H70.0869V62.5421H72.9189C74.2949 62.5421 75.3989 62.1741 76.2309 61.4381C77.0949 60.6701 77.5269 59.6781 77.5269 58.4621C77.5269 57.2781 77.1109 56.3181 76.2789 55.5821C75.4469 54.8141 74.3749 54.4301 73.0629 54.4301C72.0069 54.4301 70.9349 54.7341 69.8469 55.3421C68.7589 55.9501 67.6869 56.8621 66.6309 58.0781L62.8389 54.2861C64.2469 52.4941 65.8629 51.1181 67.6869 50.1581C69.5109 49.1981 71.4149 48.7181 73.3989 48.7181C76.4389 48.7181 78.9509 49.6141 80.9349 51.4061C82.9509 53.1981 83.9589 55.4381 83.9589 58.1261C83.9589 59.5341 83.5749 60.8301 82.8069 62.0141C82.0709 63.1981 81.0149 64.1901 79.6389 64.9901C81.4949 65.7581 82.9189 66.8141 83.9109 68.1581C84.9029 69.4701 85.3989 70.9901 85.3989 72.7181C85.3989 75.5661 84.3109 77.9181 82.1349 79.7741C79.9909 81.6301 77.2549 82.5581 73.9269 82.5581C71.7189 82.5581 69.6229 82.1421 67.6389 81.3101C65.6549 80.4781 63.8949 79.2621 62.3589 77.6621L65.8149 73.0541C67.1909 74.3021 68.5349 75.2301 69.8469 75.8381C71.1589 76.4141 72.5189 76.7021 73.9269 76.7021C75.3989 76.7021 76.5989 76.3021 77.5269 75.5021C78.4869 74.7021 78.9669 73.6781 78.9669 72.4301Z" fill="#313646"/>
</svg>
