<svg width="135" height="118" viewBox="0 0 135 118" fill="none" xmlns="http://www.w3.org/2000/svg">
<path d="M42.0599 22.1739C63.3723 26.296 93.4361 27.5043 100.194 51.3637C103.844 64.251 100.13 77.4903 95.1651 88.5694C90.7227 98.4817 85.0958 103.434 71.9793 101.637C50.5617 98.7017 15.0365 83.4597 20.0294 59.52C26.1449 30.1975 63.5426 23.994 91.1928 18.8302" stroke="#E3371D" stroke-width="4" stroke-linecap="round"/>
<path d="M46.1394 82.2613C42.3954 82.2613 39.3554 80.7092 37.0194 77.6052C34.7154 74.4692 33.5634 70.3892 33.5634 65.3652C33.5634 60.3092 34.7154 56.2292 37.0194 53.1252C39.3554 49.9892 42.3954 48.4212 46.1394 48.4212C49.9154 48.4212 52.9554 49.9892 55.2594 53.1252C57.5634 56.2292 58.7154 60.3092 58.7154 65.3652C58.7154 70.4212 57.5634 74.5012 55.2594 77.6052C52.9554 80.7092 49.9154 82.2613 46.1394 82.2613ZM46.1394 76.2612C47.9314 76.2612 49.3394 75.2852 50.3634 73.3332C51.4194 71.3812 51.9474 68.7252 51.9474 65.3652C51.9474 62.0052 51.4194 59.3492 50.3634 57.3972C49.3394 55.4452 47.9314 54.4692 46.1394 54.4692C44.3474 54.4692 42.9234 55.4452 41.8674 57.3972C40.8434 59.3492 40.3314 62.0052 40.3314 65.3652C40.3314 68.6932 40.8434 71.3492 41.8674 73.3332C42.9234 75.2852 44.3474 76.2612 46.1394 76.2612ZM77.7189 48.9012H83.6229V69.0132H88.2789V74.5332H83.6229V81.7812H77.6709V74.5332H62.5509V69.8292L77.7189 48.9012ZM69.1269 69.0132H77.6709V57.3012L69.1269 69.0132Z" fill="#313646"/>
</svg>
