<svg width="112" height="112" viewBox="0 0 112 112" fill="none" xmlns="http://www.w3.org/2000/svg">
<rect x="1.5" y="1.5" width="109" height="109" rx="18.5" fill="white" stroke="#E3371D" stroke-width="3"/>
<path d="M32.8422 74H25.9262L17.7102 50.236L14.2782 74H7.36222L13.0302 38.38H19.9982L29.5142 66.304L38.9782 38.38H45.8942L51.6142 74H44.4902L40.8502 50.808L32.8422 74Z" fill="#E3371D"/>
<path d="M103.836 56.84C103.836 61.8667 102.207 66.0787 98.948 69.476C95.6893 72.8387 91.6333 74.52 86.78 74.52C81.6147 74.52 77.2987 72.7867 73.832 69.32C70.3653 65.8187 68.632 61.4507 68.632 56.216C68.632 50.9813 70.3653 46.6133 73.832 43.112C77.2987 39.6107 81.6147 37.86 86.78 37.86C89.2067 37.86 91.512 38.328 93.696 39.264C95.88 40.2 97.856 41.5693 99.624 43.372L95.256 48.156C94.008 46.908 92.6733 45.972 91.252 45.348C89.8653 44.724 88.3747 44.412 86.78 44.412C83.6947 44.412 81.112 45.5387 79.032 47.792C76.9867 50.0453 75.964 52.8533 75.964 56.216C75.964 59.5787 76.9867 62.3867 79.032 64.64C81.112 66.8587 83.6947 67.968 86.78 67.968C89.1027 67.968 91.1133 67.344 92.812 66.096C94.5107 64.8133 95.6893 63.08 96.348 60.896H86V54.552H103.732C103.767 54.8293 103.784 55.176 103.784 55.592C103.819 56.008 103.836 56.424 103.836 56.84Z" fill="#E3371D"/>
<circle cx="59" cy="57" r="5" fill="#E3371D"/>
</svg>
