<svg width="118" height="118" viewBox="0 0 118 118" fill="none" xmlns="http://www.w3.org/2000/svg">
<g filter="url(#filter0_d_213_4)">
<circle cx="59" cy="55" r="55" fill="#E3371D"/>
</g>
<path d="M63.4493 66.2084C63.4493 64.8964 62.9053 63.8404 61.8173 63.0404C60.7613 62.2404 59.3533 61.8404 57.5933 61.8404H54.5693V56.3204H57.4013C58.7773 56.3204 59.8813 55.9524 60.7133 55.2164C61.5773 54.4484 62.0093 53.4564 62.0093 52.2404C62.0093 51.0564 61.5933 50.0964 60.7613 49.3604C59.9293 48.5924 58.8573 48.2084 57.5453 48.2084C56.4893 48.2084 55.4173 48.5124 54.3293 49.1204C53.2413 49.7284 52.1693 50.6404 51.1133 51.8564L47.3213 48.0644C48.7293 46.2724 50.3453 44.8964 52.1693 43.9364C53.9933 42.9764 55.8973 42.4964 57.8813 42.4964C60.9213 42.4964 63.4333 43.3924 65.4173 45.1844C67.4333 46.9764 68.4413 49.2164 68.4413 51.9044C68.4413 53.3124 68.0573 54.6084 67.2893 55.7924C66.5533 56.9764 65.4973 57.9684 64.1213 58.7684C65.9773 59.5364 67.4013 60.5924 68.3933 61.9364C69.3853 63.2484 69.8813 64.7684 69.8813 66.4964C69.8813 69.3444 68.7933 71.6964 66.6173 73.5524C64.4733 75.4084 61.7373 76.3364 58.4093 76.3364C56.2013 76.3364 54.1053 75.9204 52.1213 75.0884C50.1373 74.2564 48.3773 73.0404 46.8413 71.4404L50.2973 66.8324C51.6733 68.0804 53.0173 69.0084 54.3293 69.6164C55.6413 70.1924 57.0013 70.4804 58.4093 70.4804C59.8813 70.4804 61.0813 70.0804 62.0093 69.2804C62.9693 68.4804 63.4493 67.4564 63.4493 66.2084Z" fill="white"/>
<defs>
<filter id="filter0_d_213_4" x="0" y="0" width="118" height="118" filterUnits="userSpaceOnUse" color-interpolation-filters="sRGB">
<feFlood flood-opacity="0" result="BackgroundImageFix"/>
<feColorMatrix in="SourceAlpha" type="matrix" values="0 0 0 0 0 0 0 0 0 0 0 0 0 0 0 0 0 0 127 0" result="hardAlpha"/>
<feOffset dy="4"/>
<feGaussianBlur stdDeviation="2"/>
<feComposite in2="hardAlpha" operator="out"/>
<feColorMatrix type="matrix" values="0 0 0 0 0 0 0 0 0 0 0 0 0 0 0 0 0 0 0.25 0"/>
<feBlend mode="normal" in2="BackgroundImageFix" result="effect1_dropShadow_213_4"/>
<feBlend mode="normal" in="SourceGraphic" in2="effect1_dropShadow_213_4" result="shape"/>
</filter>
</defs>
</svg>
