<svg width="164" height="164" viewBox="0 0 164 164" fill="none" xmlns="http://www.w3.org/2000/svg">
<rect x="1" y="1" width="162" height="162" rx="81" fill="white" stroke="#34BE82" stroke-width="2"/>
<rect x="32.5" y="32.5" width="99" height="99" rx="49.5" fill="#34BE82" stroke="#34BE82"/>
<path d="M99.0396 68.5785L98.7302 68.9713C99.3275 69.4417 99.5023 69.7482 99.5255 69.9766C99.5487 70.2051 99.4387 70.536 98.9587 71.1076C98.9584 71.108 98.9581 71.1084 98.9578 71.1088L77.8805 95.9229L77.8805 95.9229L77.8769 95.9272C77.4307 96.4646 77.1459 96.6251 76.9264 96.6456C76.7062 96.6661 76.3777 96.5616 75.8014 96.0821L75.7984 96.0797L64.2402 86.6125C64.2399 86.6123 64.2397 86.6121 64.2394 86.6118C63.7008 86.1662 63.5309 85.879 63.5041 85.6564C63.4781 85.4398 63.5693 85.1205 64.0206 84.5579L64.0207 84.5579L64.0257 84.5514L65.8736 82.169C66.312 81.6273 66.6034 81.4711 66.8209 81.4517C67.0426 81.4319 67.3625 81.5376 67.9008 81.9855L67.9029 81.9872L76.0139 88.6604L76.4011 88.9789L76.7185 88.5909L94.1475 67.292L94.1477 67.2918C94.638 66.692 94.9495 66.5232 95.1818 66.5024C95.42 66.4811 95.7514 66.5979 96.33 67.0584L99.0396 68.5785ZM99.0396 68.5785L98.728 68.9695L96.3302 67.0586L99.0396 68.5785Z" fill="white" stroke="white"/>
</svg>
