<svg width="1000" height="85" viewBox="0 0 1000 85" fill="none" xmlns="http://www.w3.org/2000/svg">
<path d="M3.64377 3C3.64377 16.8992 -3.12758 33.956 27.2513 42.4817C50.0273 48.8737 93.6682 45.5916 118.922 45.5916C159.137 45.5916 199.351 45.5916 239.566 45.5916C276.631 45.5916 313.086 48.0254 349.939 48.0254C364.094 48.0254 381.903 48.3383 395.621 49.8508C415.258 52.0158 438.413 49.7765 456.786 54.3803C474.773 58.8876 497.151 66.7829 505.841 75.4057C507.537 77.0895 511.359 79.6348 511.359 81.355C511.359 84.4848 515.489 75.3661 517.491 72.3635C530.807 52.3972 589.87 45.5916 631.236 45.5916C662.891 45.5916 694.42 43.1578 725.973 43.1578C753.822 43.1578 781.671 43.1578 809.519 43.1578C835.548 43.1578 860.967 41.9409 886.78 41.9409C908.88 41.9409 937.673 42.0213 958.983 39.2367C992.394 34.8708 997 21.7094 997 7.86761" stroke="black" stroke-width="5" stroke-linecap="round"/>
</svg>
